<svg width="92" height="90" viewBox="0 0 92 90" fill="none" xmlns="http://www.w3.org/2000/svg">
<path d="M17.9512 56.4619C21.6157 58.861 25.5465 60.335 29.8304 60.5667V59.8591C25.7175 59.3762 21.7709 58.1827 17.9512 56.4619Z" fill="#FDB927"/>
<path d="M32.4362 30.936L29.9907 51.5374L36.8252 51.1695L37.703 40.6235L41.0262 50.9244L44.4856 50.6462L47.2336 41.5433L48.3623 50.3725L53.8173 49.9719L51.0584 32.7755L45.2272 32.4689L42.6564 41.9725L39.8349 31.8557L32.4362 30.936Z" fill="#808080"/>
<path d="M54.0682 32.9902L54.2065 49.9899L63.0787 49.3006L63.0657 45.7741H59.2097L59.1782 43.9654L62.6583 43.9347V39.9799L59.2097 39.9494L59.147 38.2632L63.0345 38.3858L62.9716 33.9406L54.0682 32.9902Z" fill="#808080"/>
<path d="M71.8568 39.847L74.9606 38.0076C74.2368 36.8755 73.7713 35.6829 71.8254 34.7581C70.669 34.1446 68.6233 33.9363 67.2169 34.7886C65.1767 35.8523 63.8873 38.1676 63.8937 40.307C63.7547 42.4543 63.84 44.627 64.9596 46.4383C66.82 49.4605 69.4858 49.5517 72.0606 48.6456C73.2697 48.1438 75.0101 46.4908 75.0545 44.1392L75.2427 40.8281L69.9131 40.7054L69.8816 43.8631L71.5432 43.8938C71.4487 44.6447 71.1923 45.1631 69.7248 45.2426C69.1584 45.1856 67.7572 44.9833 67.8126 43.1888L67.9379 40.1689C67.9696 39.5052 68.9082 38.4643 70.1011 38.4983C70.8042 38.5178 71.4423 38.8406 71.8568 39.847Z" fill="#808080"/>
<path d="M78.2756 35.1382L75.0427 48.4013L78.2079 48.1984L78.5553 46.5468H80.775L81.0201 47.9823L83.89 47.7698L81.6532 35.3268L78.2756 35.1382ZM79.8968 39.5262L80.5625 43.631L79.0861 43.6026L79.8968 39.5262Z" fill="#808080"/>
<path d="M33.5001 30.2432L31.0548 50.8445L37.8891 50.4766L38.7671 39.9306L42.0901 50.2313L45.5495 49.9533L48.2975 40.8505L49.4262 49.6796L54.8811 49.2788L52.1223 32.0824L46.2911 31.776L43.7203 41.2796L40.8988 31.1628L33.5001 30.2432Z" fill="white"/>
<path d="M55.1322 32.2974L55.2705 49.297L64.1428 48.6077L64.1299 45.0812H60.2736L60.2424 43.2725L63.7222 43.2418V39.287L60.2736 39.2563L60.211 37.5702L64.0984 37.6929L64.0358 33.2477L55.1322 32.2974Z" fill="white"/>
<path d="M72.9208 39.1542L76.0246 37.3148C75.3008 36.1827 74.8353 34.9898 72.8896 34.0653C71.733 33.4516 69.6873 33.2435 68.2809 34.0958C66.2407 35.1595 64.9513 37.4748 64.9579 39.6142C64.8189 41.7615 64.904 43.9342 66.0239 45.7455C67.8843 48.7677 70.5499 48.8589 73.1247 47.9528C74.334 47.451 76.0741 45.798 76.1187 43.4461L76.3067 40.1353L70.9771 40.0126L70.9459 43.1703L72.6075 43.201C72.5127 43.9516 72.2564 44.4702 70.7891 44.5498C70.2227 44.4928 68.8212 44.2905 68.8766 42.4958L69.0021 39.4761C69.0336 38.8124 69.9722 37.7715 71.1653 37.8052C71.8683 37.825 72.5066 38.1478 72.9208 39.1542Z" fill="white"/>
<path d="M79.3395 34.4448L76.1066 47.7082L79.2719 47.5052L79.6194 45.8537H81.8388L82.084 47.2891L84.9541 47.0765L82.717 34.6336L79.3395 34.4448ZM80.9606 38.8328L81.6266 42.9379L80.1501 42.9095L80.9606 38.8328Z" fill="white"/>
<path d="M34.0324 29.896L31.5869 50.4976L38.4214 50.1297L39.2992 39.5837L42.6224 49.8844L46.0818 49.6063L48.8298 40.5035L49.9585 49.3326L55.4135 48.9319L52.6546 31.7354L46.8234 31.429L44.2526 40.9327L41.4311 30.8158L34.0324 29.896Z" fill="#EE1D25"/>
<path d="M55.6643 31.9492L55.8026 48.9491L64.6747 48.2598L64.6618 44.7333H60.8057L60.7743 42.9244L64.2543 42.8939V38.9391L60.8057 38.9084L60.7431 37.2222L64.6305 37.345L64.5676 32.8996L55.6643 31.9492Z" fill="#EE1D25"/>
<path d="M73.4529 38.8081L76.5567 36.9686C75.8328 35.8366 75.3673 34.6437 73.4214 33.7189C72.2651 33.1055 70.2193 32.8973 68.813 33.7496C66.7727 34.8133 65.4834 37.1286 65.4897 39.268C65.3508 41.4153 65.4361 43.5878 66.5557 45.3993C68.4161 48.4216 71.0819 48.5127 73.6567 47.6067C74.8658 47.1048 76.6061 45.4518 76.6505 43.1L76.8388 39.789L71.5091 39.6664L71.4777 42.8241L73.1393 42.8549C73.0448 43.6055 72.7884 44.1241 71.3211 44.2036C70.7545 44.1467 69.3532 43.9443 69.4086 42.1496L69.534 39.1299C69.5656 38.4662 70.5043 37.4253 71.6973 37.4591C72.4003 37.4789 73.0384 37.8016 73.4529 38.8081Z" fill="#EE1D25"/>
<path d="M79.8716 34.0977L76.6387 47.361L79.8038 47.158L80.1512 45.5065H82.3709L82.6161 46.9419L85.4859 46.7293L83.2491 34.2864L79.8716 34.0977ZM81.4927 38.4857L82.1585 42.5907L80.682 42.5623L81.4927 38.4857Z" fill="#EE1D25"/>
<path d="M35.4944 38.6243C35.4944 43.5513 31.466 47.5454 26.4967 47.5454C21.5277 47.5454 17.4993 43.5513 17.4993 38.6243C17.4993 33.6972 21.5277 29.7031 26.4967 29.7031C31.466 29.7031 35.4944 33.6972 35.4944 38.6243Z" fill="#FDB927"/>
<path d="M35.4944 38.6243C35.4944 43.5513 31.466 47.5454 26.4967 47.5454C21.5277 47.5454 17.4993 43.5513 17.4993 38.6243C17.4993 33.6972 21.5277 29.7031 26.4967 29.7031C31.466 29.7031 35.4944 33.6972 35.4944 38.6243Z" fill="url(#paint0_radial_104_3911)"/>
<path d="M36.0265 38.2776C36.0265 43.2046 31.9981 47.1988 27.0288 47.1988C22.0595 47.1988 18.0311 43.2046 18.0311 38.2776C18.0311 33.3505 22.0595 29.3564 27.0288 29.3564C31.9981 29.3564 36.0265 33.3505 36.0265 38.2776Z" fill="url(#paint1_radial_104_3911)"/>
<path d="M25.4876 38.8149L23.191 37.6884L20.8339 39.5721L21.7011 36.9455L18.3369 35.1966L22.0311 35.3093L22.7954 32.9263L23.7611 35.2865L26.4016 35.2796L24.5234 36.6899L25.4876 38.8149Z" fill="#214489"/>
<path d="M29.6797 34.4902L27.695 33.7643L26.2907 35.316L26.3615 33.0291L24.2188 31.6391L26.471 31.4759L26.6856 29.8037L27.8549 31.4666L29.6799 31.4303L28.6042 32.7047L29.6797 34.4902Z" fill="#214489"/>
<path d="M33.5498 35.2334L32.2567 35.0302L31.824 36.4513L31.1362 34.8148L29.6991 34.4955L30.9951 33.718L30.8218 32.0688L31.8717 33.2248L32.8964 32.5305L32.5547 34.0169L33.5498 35.2334Z" fill="#214489"/>
<path d="M33.4898 40.6713L32.5973 39.088L31.24 39.2624L32.2059 38.1228L31.7444 36.5252L32.7893 37.2737L33.6851 36.2339L33.6582 37.8129L34.8687 38.5302L33.5465 38.7551L33.4898 40.6713Z" fill="#214489"/>
<path d="M26.9348 44.7849L25.26 43.5421L22.4484 45.5808L23.7217 42.8721L21.1528 41.02L24.615 41.0957L25.4691 38.8208L26.2806 41.0165L28.4618 41.075L26.5819 42.3946L26.9348 44.7849Z" fill="#214489"/>
<path d="M33.2802 41.7267L31.4785 41.4248L31.227 39.3447L30.2687 41.2603L28.4473 41.0694L29.6568 42.5549L28.7826 44.5169L30.4884 43.5197L31.6955 44.8059L31.6142 42.8211L33.2802 41.7267Z" fill="#214489"/>
<path d="M23.8243 48.9353C29.4992 51.6737 35.0547 48.7529 36.667 43.6904C33.919 47.8983 27.2408 49.4079 23.8243 48.9353Z" fill="#FDB927"/>
<path d="M17.3422 34.7524C17.9257 32.9665 19.6843 30.6742 21.6065 30.0872C20.9677 29.7015 17.6005 27.0839 12.2089 27.9554C7.34403 29.0461 7.86053 34.4619 8.56854 36.652C8.61955 35.342 8.47641 33.558 9.30557 32.518C9.71543 32.066 12.2042 31.0346 17.0829 34.543C17.473 34.8208 16.2425 33.8964 17.3422 34.7524Z" fill="#FDB927"/>
<path d="M16.4767 35.9558C14.992 34.5961 13.3212 33.5507 11.2554 32.7594C8.78045 43.2057 18.2817 51.0941 24.3376 55.0663C19.2988 54.1671 6.28086 45.6687 6.42291 33.7743C6.393 32.9628 6.95699 27.0231 13.5835 26.8276C17.8474 26.9121 19.6464 27.8509 21.3899 28.6426" stroke="#FDB927" stroke-width="2.95"/>
<path d="M16.2585 36.1903L16.9205 36.7841L17.1046 36.0568L16.6586 35.6899L16.3746 35.8968L16.2312 36.0434L16.2585 36.1903Z" fill="#FDB927"/>
<path d="M21.2262 28.9176C21.7097 29.1772 22.1838 29.4386 22.6387 29.7042L23.6418 29.4907C22.9173 29.1073 22.027 28.5594 21.4907 28.3403L21.2807 28.5833L21.2262 28.9176Z" fill="#FDB927"/>
<path d="M22.4128 54.8377C23.5866 55.317 25.8605 55.8534 27.6937 55.7496C25.7805 55.3627 25.3069 55.3778 23.8528 54.3677L23.0135 54.4662L22.4128 54.8377Z" fill="#FDB927"/>
<path d="M10.0359 33.0874C9.1005 36.181 9.79312 39.7698 11.5097 43.817C9.52575 40.5069 6.65941 37.2458 10.0359 33.0874Z" fill="#EE1D25"/>
<path d="M16.9685 31.3794C14.9351 34.9785 14.4749 38.6346 16.3681 42.3761C15.3258 38.7105 15.684 35.045 16.9685 31.3794Z" fill="#EE1D25"/>
<path d="M84.5511 50.3462L84.021 51.7977L83.1729 51.4451C82.4786 51.2839 82.3987 52.0869 82.7699 52.1502L83.5969 52.3574C84.105 52.5174 84.2983 52.8973 84.4027 53.1455C84.6417 53.9672 84.4383 54.3085 84.339 54.7626C84.0102 55.6306 83.3891 56.0043 82.6215 56.1311C81.658 56.2711 81.1714 56.0843 80.5861 55.9652L81.2433 54.2235C81.3633 54.6746 81.9053 54.688 82.0491 54.7211C82.3699 54.8013 82.6257 54.6744 82.7488 54.5138C82.9267 54.2124 82.7248 54.0021 82.5368 53.9333L81.6039 53.7466C81.0421 53.6002 80.8847 52.9324 80.7875 52.5337C80.7252 52.0037 80.7899 51.5326 81.0685 51.0781C81.2877 50.6726 81.5447 50.4014 81.9317 50.114C82.2873 49.8828 82.9192 49.7908 83.406 49.8693C84.1923 50.0284 84.2347 50.1873 84.5511 50.3462Z" fill="#808080"/>
<path d="M30.2847 52.6533L28.8124 63.1718L33.5235 62.5666L33.6385 57.1327L36.0515 62.172L38.5031 61.8682L40.2162 56.5337L41.0768 61.5321L44.6712 61.0068L42.6663 52.2173L38.4985 52.2773L37.0293 57.6926L35.1517 52.4534L30.2847 52.6533Z" fill="#808080"/>
<path d="M45.6125 52.0667L49.338 51.8042L49.4642 60.3465L45.9657 60.8374L45.6125 52.0667Z" fill="#808080"/>
<path d="M50.827 51.6991L54.2231 51.5195L54.258 57.1308L56.8801 56.8732L56.87 59.3942L50.8712 60.2259L50.827 51.6991Z" fill="#808080"/>
<path d="M63.6122 51.0838L66.1949 50.8862L66.2237 58.1582L63.6122 58.5564V51.0838Z" fill="#808080"/>
<path d="M73.652 55.5184C72.7257 57.3738 70.5869 58.2706 68.8749 57.5215C67.163 56.7726 66.526 54.6614 67.4523 52.806C68.3787 50.9506 70.5177 50.054 72.2296 50.8029C73.9416 51.552 74.5784 53.6633 73.652 55.5184Z" fill="#808080"/>
<path d="M57.6615 51.416L60.543 51.2485L60.5727 56.4865L62.7977 56.2461L62.7891 58.5992L57.6991 59.3758L57.6615 51.416Z" fill="#808080"/>
<path d="M74.7419 50.3621L74.6898 57.0656L76.5443 56.8211L76.6067 53.3164L78.1278 56.5562L80.0865 56.4338L80.2323 50.0972L78.3778 50.1991L78.4508 53.7851L76.7318 50.25L74.7419 50.3621Z" fill="#808080"/>
<path d="M85.2568 49.6938L84.7267 51.1452L83.8784 50.7928C83.1843 50.6315 83.1044 51.4346 83.4756 51.4978L84.3026 51.7051C84.8107 51.8651 85.004 52.245 85.1084 52.4929C85.3472 53.3147 85.144 53.6561 85.0446 54.1103C84.7159 54.9781 84.0945 55.3517 83.3272 55.4788C82.3634 55.6186 81.8771 55.432 81.2917 55.3128L81.949 53.5712C82.069 54.0223 82.611 54.0354 82.7548 54.0688C83.0756 54.149 83.3313 54.0221 83.4545 53.8615C83.6324 53.5598 83.4305 53.3497 83.2423 53.2809L82.3093 53.0943C81.7478 52.9479 81.5903 52.28 81.4932 51.8814C81.4307 51.3512 81.4954 50.8803 81.7742 50.4255C81.9934 50.0202 82.2502 49.7491 82.6374 49.4614C82.993 49.2305 83.6247 49.1385 84.1117 49.2169C84.8978 49.3758 84.9402 49.535 85.2568 49.6938Z" fill="white"/>
<path d="M30.952 52.0383L29.4795 62.5568L34.1906 61.9515L34.3056 56.5177L36.7188 61.5568L39.1702 61.2532L40.8835 55.9185L41.7439 60.9169L45.3383 60.3918L43.3334 51.6021L39.1656 51.662L37.6964 57.0776L35.8188 51.8384L30.952 52.0383Z" fill="white"/>
<path d="M46.241 51.4522L49.9666 51.1895L50.0926 59.732L46.5943 60.2228L46.241 51.4522Z" fill="white"/>
<path d="M51.4558 50.9325L54.8516 50.7529L54.8868 56.3642L57.5086 56.1068L57.4985 58.6276L51.5 59.4595L51.4558 50.9325Z" fill="white"/>
<path d="M64.3595 50.3534L66.942 50.1558L66.971 57.4276L64.3595 57.8258V50.3534Z" fill="white"/>
<path d="M74.3994 54.788C73.4731 56.6432 71.3341 57.54 69.6221 56.7911C67.9101 56.042 67.2733 53.9308 68.1997 52.0754C69.126 50.2203 71.2648 49.3234 72.9768 50.0726C74.6888 50.8214 75.3258 52.9327 74.3994 54.788Z" fill="white"/>
<path d="M58.4058 50.6875L61.2875 50.52L61.3172 55.7582L63.5419 55.5178L63.5333 57.8709L58.4434 58.6475L58.4058 50.6875Z" fill="white"/>
<path d="M75.4864 49.7083L75.4343 56.4115L77.2886 56.1671L77.3512 52.6625L78.8721 55.9022L80.8308 55.78L80.9766 49.4434L79.1221 49.5453L79.1951 53.1313L77.4761 49.5962L75.4864 49.7083Z" fill="white"/>
<path d="M85.5784 49.4185L85.0482 50.87L84.2002 50.5174C83.5058 50.3563 83.426 51.1592 83.7973 51.2224L84.6243 51.4297C85.1324 51.5899 85.3255 51.9698 85.4299 52.2177C85.669 53.0395 85.4656 53.3807 85.3664 53.8351C85.0377 54.7028 84.4163 55.0765 83.6489 55.2034C82.6852 55.3434 82.1988 55.1565 81.6133 55.0376L82.2707 53.2958C82.3908 53.7469 82.9326 53.7602 83.0764 53.7936C83.3974 53.8735 83.6529 53.7467 83.776 53.5861C83.9539 53.2846 83.7523 53.0743 83.564 53.0055L82.6311 52.8189C82.0693 52.6727 81.9119 52.0046 81.8147 51.606C81.7525 51.076 81.8171 50.6051 82.0959 50.1504C82.3149 49.7448 82.572 49.4737 82.9589 49.1862C83.3145 48.9551 83.9464 48.8631 84.4334 48.9415C85.2195 49.1007 85.262 49.2596 85.5784 49.4185Z" fill="#33337A"/>
<path d="M31.3124 51.7263L29.8398 62.2446L34.551 61.6395L34.666 56.2055L37.0791 61.2448L39.5306 60.9412L41.2439 55.6065L42.1042 60.6049L45.6986 60.0796L43.6938 51.29L39.5259 51.35L38.0567 56.7654L36.1792 51.5263L31.3124 51.7263Z" fill="#33337A"/>
<path d="M46.6398 51.2147L50.3654 50.9521L50.4914 59.4947L46.9929 59.9853L46.6398 51.2147Z" fill="#33337A"/>
<path d="M51.8545 50.7708L55.2505 50.5913L55.2855 56.2025L57.9075 55.945L57.8974 58.466L51.8987 59.2979L51.8545 50.7708Z" fill="#33337A"/>
<path d="M64.6398 50.1561L67.2223 49.9585L67.2511 57.2305L64.6398 57.6287V50.1561Z" fill="#33337A"/>
<path d="M74.6795 54.5909C73.7532 56.446 71.6144 57.3428 69.9024 56.5937C68.1904 55.8448 67.5534 53.7336 68.4798 51.8782C69.4064 50.0231 71.5451 49.1263 73.2571 49.8752C74.9691 50.6243 75.6059 52.7355 74.6795 54.5909Z" fill="#33337A"/>
<path d="M58.6887 50.4507L61.5705 50.2832L61.6001 55.5212L63.8249 55.281L63.855 57.672L58.7263 58.4107L58.6887 50.4507Z" fill="#33337A"/>
<path d="M75.7692 49.4343L75.7173 56.1378L77.5715 55.8933L77.6342 52.3888L79.1551 55.6284L81.1138 55.5061L81.2596 49.1694L79.4051 49.2713L79.4781 52.8574L77.7591 49.3223L75.7692 49.4343Z" fill="#33337A"/>
<path d="M71.8601 50.6353L71.3082 52.3375L68.9307 52.5452L70.8412 53.6661L70.3317 55.7421L71.945 54.3305L73.4312 54.9947L72.8793 53.4586L74.1955 52.213L72.582 52.296L71.8601 50.6353Z" fill="white"/>
<defs>
<radialGradient id="paint0_radial_104_3911" cx="0" cy="0" r="1" gradientUnits="userSpaceOnUse" gradientTransform="translate(22.8738 35.7646) rotate(71.1343) scale(9.36824 10.2381)">
<stop stop-color="#FFF6D5"/>
<stop offset="1" stop-color="#FFF6D5" stop-opacity="0"/>
</radialGradient>
<radialGradient id="paint1_radial_104_3911" cx="0" cy="0" r="1" gradientUnits="userSpaceOnUse" gradientTransform="translate(23.549 35.7944) rotate(74.6764) scale(3.78793 4.6441)">
<stop stop-color="#FFF6D5"/>
<stop offset="1" stop-color="#FFF6D5" stop-opacity="0"/>
</radialGradient>
</defs>
</svg>
